<svg width="34" height="33" viewBox="0 0 34 33" fill="none" xmlns="http://www.w3.org/2000/svg">
<path d="M26.3438 7.96875C26.0156 3.59375 22.4062 0.09375 17.9219 0.09375H8.625C3.92188 0.09375 0.09375 3.92188 0.09375 8.51562V24.1562C0.09375 24.5938 0.3125 24.9219 0.75 25.1406C0.859375 25.25 1.07812 25.25 1.1875 25.25C1.40625 25.25 1.73438 25.1406 1.95312 25.0312C3.375 23.8281 5.01562 22.8438 6.65625 22.0781V31.8125C6.65625 32.25 6.875 32.5781 7.3125 32.7969C7.42188 32.9062 7.64062 32.9062 7.75 32.9062C7.96875 32.9062 8.29688 32.7969 8.51562 32.6875C11.6875 29.8438 15.8437 28.3125 20.1094 28.3125H24.4844C29.1875 28.3125 33.0156 24.4844 33.0156 19.8906V16.1719C32.9062 12.2344 30.0625 8.84375 26.3438 7.96875ZM30.7188 19.8906C30.7188 23.3906 27.875 26.125 24.375 26.125H20C16.0625 26.125 12.125 27.3281 8.84375 29.625V21.3125C10.375 20.875 11.9062 20.6562 13.5469 20.6562H17.9219C22.625 20.6562 26.4531 16.8281 26.4531 12.2344V10.2656C28.9688 11.0312 30.8281 13.4375 30.8281 16.1719V19.8906H30.7188Z" fill="#EC8D35"/>
</svg>
