<svg width="35" height="35" viewBox="0 0 35 35" fill="none" xmlns="http://www.w3.org/2000/svg">
<path d="M29.7589 5.24113C29.4256 4.90793 28.8855 4.90792 28.5523 5.24113L26.1391 7.65432C25.8059 7.98752 25.8059 8.52771 26.1391 8.86091C26.4723 9.19412 27.0125 9.19411 27.3457 8.86091L29.7589 6.44772C30.0921 6.11452 30.0921 5.57433 29.7589 5.24113ZM17.6929 0.245089C17.5385 0.0906745 17.3253 -1.70614e-05 17.0896 2.4075e-09C16.6184 2.4075e-09 16.2412 0.377169 16.2412 0.848374L16.2412 4.2608C16.2412 4.73192 16.6184 5.10915 17.0896 5.10915C17.5608 5.10918 17.938 4.73201 17.938 4.26077L17.938 0.848374C17.938 0.612757 17.8473 0.399444 17.6929 0.245089ZM34.7549 17.3071C34.6005 17.1527 34.3873 17.062 34.1516 17.062L30.7392 17.062C30.268 17.062 29.8908 17.4392 29.8908 17.9104C29.8908 18.3816 30.268 18.7588 30.7392 18.7588H34.1516C34.6228 18.7588 35 18.3816 35 17.9104C35 17.6747 34.9093 17.4615 34.7549 17.3071ZM24.3292 10.6708C20.6505 6.99215 14.2356 6.28528 10.1988 10.322C5.25937 15.2615 7.4896 20.0042 4.68429 23.604L11.396 30.3157C14.9958 27.5104 19.7385 29.7406 24.678 24.8011C28.7147 20.7644 28.0078 14.3495 24.3292 10.6708ZM20.6434 10.6425C20.6466 10.6456 20.6497 10.6487 20.6528 10.6519C20.6691 10.667 20.6848 10.6827 20.6999 10.699C20.8405 10.8409 20.9268 11.0276 20.9439 11.2267C20.9609 11.4257 20.9076 11.6244 20.7932 11.7882C20.6788 11.9519 20.5106 12.0703 20.3178 12.1228C20.1251 12.1753 19.92 12.1585 19.7384 12.0753C17.7141 11.1596 15.3078 11.3565 13.4415 12.6597C13.3493 12.7235 13.2454 12.7684 13.1358 12.792C13.0262 12.8156 12.913 12.8174 12.8027 12.7973C12.6924 12.7772 12.5872 12.7355 12.493 12.6747C12.3988 12.6139 12.3175 12.5351 12.2537 12.4429C12.19 12.3507 12.145 12.2468 12.1214 12.1372C12.0978 12.0276 12.096 11.9144 12.1162 11.8041C12.1363 11.6938 12.178 11.5886 12.2388 11.4944C12.2996 11.4002 12.3783 11.3189 12.4706 11.2552C14.8334 9.60534 17.8589 9.35851 20.4265 10.5199C20.5044 10.55 20.5776 10.5912 20.6434 10.6425ZM5.62696 5.24113C5.29376 4.90793 4.75357 4.90793 4.42037 5.24113C4.08716 5.57433 4.08716 6.11452 4.42037 6.44772L6.83355 8.86091C7.16675 9.19412 7.70695 9.19412 8.04015 8.86091C8.37335 8.52771 8.37335 7.98752 8.04015 7.65432L5.62696 5.24113ZM27.3457 26.9599C27.0125 26.6267 26.4723 26.6266 26.1391 26.9598C25.8059 27.293 25.8059 27.8332 26.1391 28.1664L28.5523 30.5796C28.8855 30.9128 29.4256 30.9128 29.7589 30.5796C30.092 30.2464 30.0921 29.7062 29.7589 29.373L27.3457 26.9599ZM3.51541 24.8483L2.30881 26.0549L8.9451 32.6912L10.1517 31.4846L3.51541 24.8483ZM1.10222 27.2615L0.498912 27.8648C-0.194305 28.558 -0.137707 29.6414 0.498932 30.278L1.40387 31.1829L0.800566 31.7862C0.132112 32.4547 0.13212 33.531 0.800589 34.1994C1.46903 34.8679 2.54531 34.8679 3.21376 34.1994L3.81705 33.5962L4.72201 34.5011C5.35863 35.1377 6.44197 35.1943 7.1352 34.5011L7.73851 33.8977L1.10222 27.2615Z" fill="#EC8D35"/>
</svg>
