<svg width="35" height="35" viewBox="0 0 35 35" fill="none" xmlns="http://www.w3.org/2000/svg">
<path fill-rule="evenodd" clip-rule="evenodd" d="M8.26262 16.0162C8.16414 16.1985 7.93235 16.2699 7.74299 16.1766C7.55362 16.0818 7.47938 15.8587 7.57634 15.6765C8.04446 14.8089 8.18839 14.1747 8.04144 13.6716C7.896 13.1773 7.44909 12.7647 6.7355 12.3462C6.5537 12.2398 6.49613 12.0108 6.60673 11.8359C6.71732 11.6609 6.95518 11.6055 7.13698 11.7119C9.02468 12.8215 9.32313 14.0522 8.26262 16.0162ZM10.3079 24.5753C10.2185 25.0565 9.45945 24.9252 9.54885 24.4441C9.88064 22.6725 8.95344 21.8224 7.12485 21.4987C6.62488 21.4098 6.7658 20.6808 7.26423 20.7683C9.5049 21.1649 10.7199 22.3882 10.3079 24.5753ZM9.49428 28.4771C9.30036 28.3911 9.21552 28.1709 9.30491 27.9843C9.39429 27.7976 9.62306 27.716 9.81697 27.802C11.688 28.6331 12.7228 28.0688 13.2242 26.1748C13.3454 25.7169 14.0863 25.8569 13.9726 26.3629C13.806 27.2552 13.7045 27.9055 13.8575 28.3196C13.9923 28.6812 14.3862 28.9043 15.2301 29.0282C15.7346 29.1011 15.6179 29.8375 15.115 29.7646C13.8015 29.5736 13.1667 29.1026 13.0364 28.1972C12.0758 29.1872 10.7426 29.0312 9.49428 28.4771ZM9.91241 8.36116C9.74728 8.23139 9.72455 7.9981 9.85939 7.83918C9.99422 7.68025 10.2381 7.65837 10.4017 7.78814C11.9637 9.02606 14.2968 7.57381 13.7393 5.75703C13.5954 5.28898 14.3362 5.07756 14.4802 5.54706C14.7816 6.52981 14.4847 7.48341 13.7802 8.15705C15.8118 9.06835 15.8285 12.0398 13.4818 13.0036C13.2863 13.0838 13.0591 12.9963 12.9758 12.8068C12.8924 12.6187 12.9833 12.4 13.1803 12.3198C14.5407 11.7613 14.8741 10.2434 14.0923 9.30734C13.8439 9.00989 13.4818 8.78391 13.0137 8.68764C12.6395 8.86844 12.2228 8.97634 11.7941 8.98946C11.1548 9.01133 10.4942 8.82338 9.91241 8.36116ZM23.2142 9.59762C21.8976 10.0132 20.6659 8.75922 21.2856 7.60002C21.7628 6.70768 23.046 6.52541 23.8035 7.20342L25.873 6.07197L28.5333 3.86881C26.9562 2.95605 24.6351 2.89916 23.4414 4.34559C23.308 4.50598 23.0656 4.53368 22.899 4.40537C22.7324 4.27852 22.7036 4.04376 22.8369 3.88339C23.2338 3.4022 23.7353 3.04935 24.2958 2.81751C23.555 -0.609001 20.2173 -0.667306 17.886 1.36527V15.8235L21.778 13.0473C21.8522 12.9948 21.9386 12.9715 22.0234 12.9744L27.4985 12.9846C27.7712 12.0733 28.8908 11.6578 29.7711 12.0952C30.9755 12.693 30.824 14.3202 29.5317 14.7271C28.6893 14.9924 27.7319 14.5623 27.4925 13.7268L22.1325 13.7166L17.883 16.748V33.6284C20.1949 35.6464 23.5474 35.6508 24.2886 32.198C23.7492 31.9574 23.2568 31.6046 22.8493 31.1278C22.8251 31.1015 22.8039 31.0724 22.7872 31.0403L21.554 28.5834C21.5297 28.5339 21.5161 28.4799 21.5161 28.4216C21.5176 28.0789 21.5207 26.1805 21.5449 26.0857C20.592 25.8714 20.0496 24.8988 20.5041 24.0503C21.1176 22.9027 22.9448 23.0077 23.4053 24.2048C23.722 25.0272 23.1781 25.8874 22.2933 26.0858C22.3266 26.2184 22.2706 28.2729 22.2872 28.3385L23.4629 30.6787C24.0795 31.3859 24.937 31.7563 25.8429 31.8321C27.37 31.9604 28.9654 31.2634 29.8516 30.0255C30.4379 29.2061 30.7273 28.1256 30.4955 26.8367L30.3562 26.2549C29.5547 26.338 28.6806 26.322 27.7413 26.1864C27.2383 26.1135 27.3534 25.3786 27.8564 25.45C30.0304 25.765 32.4698 25.4296 33.9738 23.935C34.4556 23.4553 34.7843 22.8984 34.9237 22.3151L28.4805 22.3312C28.3729 22.3326 28.2639 22.2903 28.1866 22.2058L26.4292 20.2898C25.602 20.6515 24.5809 20.2928 24.2628 19.4689C23.784 18.2252 25.2415 17.0966 26.5004 17.7207C27.3306 18.1319 27.5837 19.1176 27.0322 19.8276L28.6472 21.5905L34.9965 21.5759C34.9329 19.886 33.3422 18.5299 30.8668 17.8592C30.4926 17.7572 30.4926 17.2439 30.8698 17.1433C33.159 16.5207 34.4195 15.4198 34.839 14.2446C35.2481 13.0986 34.8481 11.935 33.9739 11.066C32.4695 9.57146 30.0304 9.23611 27.8565 9.55104C27.3535 9.62395 27.2384 8.88763 27.7414 8.81469C28.6807 8.67909 29.5548 8.66305 30.3563 8.74616C30.882 7.03875 30.4487 5.39546 29.173 4.32514L26.3506 6.66391L24.213 7.84057C24.4554 8.58711 23.9842 9.35407 23.2146 9.59756L23.2142 9.59762ZM10.711 32.1936C11.4518 35.6463 14.8046 35.642 17.1165 33.6239V1.36065C14.785 -0.671919 11.449 -0.613615 10.7067 2.8129C11.2673 3.04473 11.7687 3.39905 12.1656 3.87877C12.2975 4.03917 12.2702 4.27246 12.1035 4.40076C11.9369 4.52905 11.6945 4.50136 11.5612 4.34097C9.4917 1.83453 3.69539 3.65569 4.50442 8.15394L4.6438 8.73572C5.44524 8.6526 6.31939 8.66719 7.2587 8.80424C7.76169 8.87715 7.64654 9.6135 7.14356 9.5406C4.96952 9.22565 2.5302 9.56101 1.02615 11.0556C0.152001 11.9246 -0.247978 13.0896 0.161077 14.2342C0.58072 15.4108 1.8412 16.5103 4.13023 17.1329C4.50747 17.2335 4.50747 17.7482 4.13326 17.8488C1.8426 18.4714 0.582121 19.5723 0.161004 20.7489C-0.248051 21.895 0.151914 23.0585 1.02608 23.9275C2.53048 25.4221 4.96964 25.7574 7.14349 25.4425C7.64648 25.3696 7.76163 26.1059 7.25863 26.1788C6.31932 26.3144 5.44517 26.3305 4.64373 26.2474L4.50435 26.8292C4.13166 28.904 5.11338 30.6421 6.93289 31.4439C8.48123 32.1248 10.4356 31.9717 11.5641 30.6391C11.6989 30.4801 11.9413 30.4553 12.1064 30.5851C12.2716 30.7149 12.2973 30.9482 12.1625 31.1071C11.7534 31.5926 11.2564 31.9515 10.711 32.1936ZM12.4214 21.1675C11.9745 19.2997 12.7047 18.212 14.8939 18.142C15.4014 18.1259 15.3757 17.3852 14.8697 17.3998C13.7425 17.4363 12.6138 17.7395 11.9881 18.6144C11.4276 17.7293 10.405 17.48 8.91721 17.8664C8.71117 17.9189 8.58846 18.123 8.643 18.3213C8.69754 18.5197 8.90964 18.6377 9.1157 18.5852C10.4747 18.2324 11.2943 18.5707 11.5776 19.6001C11.5352 19.829 11.517 20.0769 11.5261 20.3437C11.5367 20.6499 11.5837 20.9794 11.6685 21.3323C11.7836 21.8105 12.5351 21.6443 12.4214 21.1675Z" fill="#EC8D35"/>
</svg>
