<svg width="35" height="35" viewBox="0 0 35 35" fill="none" xmlns="http://www.w3.org/2000/svg">
<path d="M12.6785 22.297L13.6477 21.9267C13.7075 21.7936 13.7803 21.6698 13.8549 21.5475C12.3044 20.1928 11.2898 18.005 11.2898 15.5296C11.2898 15.517 11.2922 15.5039 11.2922 15.4913C10.8158 15.6338 10.3203 15.715 9.80737 15.715C8.28293 15.715 6.8907 15.0482 5.81426 13.948C3.56453 14.8184 0.411024 15.7365 0.0478011 18.4758C-0.488478 22.5225 3.58281 25.153 7.48142 25.9291C8.40465 23.9066 10.7392 23.0245 12.6785 22.297Z" fill="#EC8D35"/>
<path d="M34.9522 18.4762C34.5898 15.737 31.4363 14.8189 29.1865 13.9485C28.1101 15.0487 26.7175 15.7155 25.1942 15.7155C24.6813 15.7155 24.1854 15.6343 23.7102 15.4918C23.7102 15.5044 23.7118 15.518 23.7118 15.5301C23.7118 17.9542 22.7419 20.105 21.2454 21.4649C21.3248 21.6236 21.3905 21.7903 21.448 21.9627L22.323 22.297C24.262 23.0245 26.5965 23.9062 27.519 25.9291C31.418 25.1535 35.4885 22.523 34.9522 18.4762Z" fill="#EC8D35"/>
<path d="M17.5008 22.2311C20.5829 22.2311 23.0814 19.2309 23.0814 15.53C23.0814 11.8291 20.5829 8.82898 17.5008 8.82898C14.4187 8.82898 11.9202 11.8291 11.9202 15.53C11.9202 19.2309 14.4187 22.2311 17.5008 22.2311Z" fill="#EC8D35"/>
<path d="M21.4939 22.7775C20.4175 23.8772 19.0245 24.544 17.5012 24.544C15.9763 24.544 14.5841 23.8772 13.5077 22.7775C11.2579 23.6474 8.10483 24.566 7.74122 27.3048C7.09644 32.1776 13.1297 35 17.5012 35C21.8715 35 27.9051 32.1776 27.2596 27.3048C26.8964 24.566 23.7436 23.6474 21.4939 22.7775Z" fill="#EC8D35"/>
<path d="M9.80737 13.4026C10.4584 13.4026 11.0802 13.2616 11.6616 13.0159C12.2562 11.0294 13.5298 9.43005 15.1503 8.63153C15.3032 8.01979 15.3875 7.37304 15.3875 6.70153C15.3875 3.00125 12.8889 0.000488281 9.80737 0.000488281C6.72503 0.000488281 4.22681 3.00125 4.22681 6.70153C4.22681 10.4023 6.72503 13.4026 9.80737 13.4026Z" fill="#EC8D35"/>
<path d="M23.3411 13.0154C23.921 13.2615 24.5436 13.4021 25.1946 13.4021C28.2758 13.4021 30.7744 10.4018 30.7744 6.70104C30.7744 3.00076 28.2758 0 25.1946 0C22.1122 0 19.614 3.00076 19.614 6.70104C19.614 7.37255 19.6984 8.01884 19.8508 8.6301C21.4713 9.43003 22.7446 11.0285 23.3411 13.0154Z" fill="#EC8D35"/>
</svg>
