<svg width="35" height="35" viewBox="0 0 35 35" fill="none" xmlns="http://www.w3.org/2000/svg">
<path fill-rule="evenodd" clip-rule="evenodd" d="M33.2486 5.44979C33.2652 6.5671 33.1333 7.96985 33.0152 8.99076C32.9691 9.38895 32.9065 9.72035 32.8393 9.99255C34.3397 12.9132 35 16.4268 35 20.2632C35 24.8102 32.9222 28.5545 29.6867 31.1078C26.4808 33.6378 22.156 35 17.5 35C12.8439 35 8.51916 33.6378 5.31335 31.1078C2.07772 28.5545 0 24.8102 0 20.2632C0 16.4268 0.66031 12.9132 2.16076 9.99253C2.09354 9.72035 2.03096 9.38893 1.98488 8.99076C1.86678 7.96985 1.73483 6.5671 1.75142 5.44979C1.77011 4.1909 1.92643 2.93208 2.09979 1.6833C2.17996 1.10578 2.30725 0.562706 2.90295 0.219522C3.51146 -0.131049 4.1523 -0.000352163 4.78447 0.188077C6.91682 0.823658 8.91602 1.71515 10.7941 2.78686C12.7741 2.16055 15.012 1.8421 17.5 1.8421C19.988 1.8421 22.2259 2.16055 24.206 2.78686C26.0839 1.71515 28.0831 0.823658 30.2155 0.188077C30.8478 -0.000352163 31.4886 -0.131049 32.0971 0.219522C32.6928 0.562706 32.82 1.10578 32.9002 1.6833C33.0736 2.93208 33.2299 4.1909 33.2486 5.44979ZM31.5 20.2632C31.5 17.1552 30.8214 12.8947 27.125 12.8947C25.4587 12.8947 23.8829 13.3556 22.308 13.8165C20.7344 14.2767 19.1616 14.7368 17.5 14.7368C15.8384 14.7368 14.2657 14.2767 12.6921 13.8165C11.1171 13.3556 9.54128 12.8947 7.875 12.8947C4.18913 12.8947 3.5 17.1679 3.5 20.2632C3.5 23.5119 4.94804 26.215 7.41279 28.1601C9.90736 30.1287 13.4576 31.3158 17.5 31.3158C21.5423 31.3158 25.0925 30.1286 27.5872 28.1601C30.052 26.215 31.5 23.5119 31.5 20.2632ZM14 21.1842C14 23.7276 12.8248 25.7895 11.375 25.7895C9.92525 25.7895 8.75 23.7276 8.75 21.1842C8.75 18.6408 9.92525 16.5789 11.375 16.5789C12.8248 16.5789 14 18.6408 14 21.1842ZM23.625 25.7895C25.0747 25.7895 26.25 23.7276 26.25 21.1842C26.25 18.6408 25.0747 16.5789 23.625 16.5789C22.1753 16.5789 21 18.6408 21 21.1842C21 23.7276 22.1753 25.7895 23.625 25.7895Z" fill="#EC8D35"/>
</svg>
