<svg width="20" height="20" viewBox="0 0 20 20" fill="none" xmlns="http://www.w3.org/2000/svg">
<path d="M19.91 15.9444L19.8105 15.6444C19.5747 14.9435 18.8019 14.2125 18.092 14.0199L15.4644 13.302C14.7518 13.1081 13.7354 13.3688 13.2141 13.8902L12.2631 14.8413C8.80707 13.9073 6.09701 11.1967 5.16441 7.74067L6.11542 6.78948C6.63675 6.26805 6.89738 5.25277 6.70353 4.54008L5.98703 1.91073C5.79317 1.19934 5.06096 0.426413 4.36152 0.193197L4.06158 0.0923309C3.3608 -0.140885 2.36138 0.0949719 1.84008 0.616365L0.417572 2.04044C0.163441 2.29327 0.00102071 3.01644 0.00102071 3.01908C-0.0487324 7.53625 1.72218 11.8883 4.91686 15.0836C8.1037 18.2711 12.4387 20.0397 16.9419 20.0017C16.9655 20.0017 17.7094 19.8419 17.9636 19.589L19.3861 18.1662C19.9074 17.6449 20.1432 16.6453 19.91 15.9444Z" fill="#FFF8F1"/>
</svg>
