<svg width="35" height="35" viewBox="0 0 35 35" fill="none" xmlns="http://www.w3.org/2000/svg">
<path fill-rule="evenodd" clip-rule="evenodd" d="M7.94549 34.9999V11.3844H0.443494V34.9999H7.94549V34.9999ZM4.19528 8.16127C6.81056 8.16127 8.43967 6.34635 8.43967 4.0802C8.39022 1.76369 6.81056 0 4.24432 0C1.67767 7.16567e-05 0 1.76376 0 4.08028C0 6.34642 1.62822 8.16134 4.1459 8.16134L4.19528 8.16127ZM12.0976 34.9999C12.0976 34.9999 12.196 13.6002 12.0976 11.3845H19.6007V14.8092H19.5509C20.5375 13.1977 22.3149 10.8299 26.3619 10.8299C31.2992 10.8299 35 14.2052 35 21.459V35H27.4981V22.3664C27.4981 19.1919 26.4126 17.0257 23.6969 17.0257C21.6247 17.0257 20.3898 18.4861 19.8474 19.8977C19.649 20.4002 19.6007 21.1059 19.6007 21.8117V34.9999H12.0976Z" fill="#EC8D35"/>
</svg>
