<svg width="36" height="35" viewBox="0 0 36 35" fill="none" xmlns="http://www.w3.org/2000/svg">
<path fill-rule="evenodd" clip-rule="evenodd" d="M8.31686 34.9999V11.3844H0.71018V34.9999H8.31686V34.9999ZM4.51432 8.16127C7.16609 8.16127 8.81793 6.34635 8.81793 4.0802C8.76779 1.76369 7.16609 0 4.56404 0C1.96158 7.16567e-05 0.260498 1.76376 0.260498 4.08028C0.260498 6.34642 1.91144 8.16134 4.46425 8.16134L4.51432 8.16127ZM12.5269 34.9999C12.5269 34.9999 12.6267 13.6002 12.5269 11.3845H20.1347V14.8092H20.0842C21.0846 13.1977 22.8868 10.8299 26.9902 10.8299C31.9965 10.8299 35.7489 14.2052 35.7489 21.459V35H28.1423V22.3664C28.1423 19.1919 27.0416 17.0257 24.288 17.0257C22.1869 17.0257 20.9348 18.4861 20.3849 19.8977C20.1837 20.4002 20.1347 21.1059 20.1347 21.8117V34.9999H12.5269Z" fill="#EC8D35"/>
</svg>
