<svg width="58" height="35" viewBox="0 0 58 35" fill="none" xmlns="http://www.w3.org/2000/svg">
<path d="M2.01573 34.3823C1.64337 34.3822 1.31322 34.367 0.984758 34.3862C0.664345 34.405 0.518597 34.2966 0.523097 33.9143C0.535039 32.8994 0.523637 31.8838 0.504336 30.8688C0.499635 30.6216 0.657901 30.5507 0.791211 30.4491C3.06891 28.714 5.34865 26.9821 7.62832 25.25C13.6915 20.6435 19.7548 16.0372 25.8175 11.4299C25.9081 11.361 26.0198 11.312 26.1001 11.0734C19.3964 11.0734 12.7373 11.0734 6.03709 11.0734C6.52101 10.5119 6.93059 10.0202 7.35767 9.54719C7.62842 9.24735 7.95728 9.00471 8.20255 8.68405C8.53938 8.24371 8.93749 8.14316 9.44486 8.14439C16.0904 8.16054 22.736 8.15028 29.3815 8.16383C29.8933 8.16488 30.3131 8.03596 30.7311 7.70581C31.9371 6.75327 33.1707 5.84223 34.3927 4.91371C34.4956 4.83557 34.6197 4.77607 34.6746 4.4798C30.8689 4.47283 27.0902 4.47801 23.3115 4.47708C19.5161 4.47614 15.7206 4.49013 11.9253 4.47334C8.13929 4.45659 4.35239 4.58119 0.501953 4.44527C0.740246 4.03301 1.05524 3.80963 1.31441 3.53534C2.0641 2.74185 2.84748 1.9861 3.59257 1.1877C3.84148 0.92098 4.09447 0.8387 4.4301 0.839375C9.22806 0.849025 14.0261 0.846573 18.824 0.846648C28.1908 0.846796 37.5577 0.846642 46.9245 0.846845C47.5876 0.846859 47.588 0.847738 47.5885 1.55606C47.589 2.3529 47.5658 3.15085 47.5977 3.94616C47.6159 4.3985 47.4499 4.49557 47.0756 4.49227C45.0563 4.47447 43.0368 4.48484 41.0175 4.46837C40.6699 4.46554 40.3835 4.56244 40.1014 4.7802C38.8157 5.77245 37.5201 6.74946 36.2291 7.73348C36.1245 7.81316 36.0274 7.9044 35.9362 8.10042C41.5189 8.10042 47.1016 8.10042 52.7455 8.10042C52.7455 9.12512 52.7484 10.0555 52.7432 10.9859C52.7421 11.1878 52.5754 11.2662 52.4495 11.362C49.196 13.8365 45.9411 16.3087 42.6867 18.7816C39.7143 21.0403 36.7423 23.2997 33.7696 25.5578C33.6434 25.6537 33.5317 25.7859 33.3197 25.7839C33.2208 25.3296 33.4166 24.9056 33.4708 24.4787C33.5903 23.5383 33.796 22.6113 33.9518 21.676C34.014 21.3023 34.165 21.0356 34.4621 20.8109C38.5698 17.706 42.6693 14.5882 46.7702 11.4726C46.8851 11.3854 46.9939 11.2887 47.1401 11.1677C46.6935 10.9213 46.2581 11.0709 45.8499 11.0694C42.0978 11.0557 38.3456 11.0765 34.5934 11.0836C33.7486 11.0852 32.9036 11.0783 32.0589 11.062C31.8711 11.0584 31.7326 11.1376 31.5884 11.2472C24.6574 16.5153 17.7253 21.7815 10.7933 27.048C9.30114 28.1816 7.80906 29.3152 6.31765 30.4499C6.23729 30.511 6.16326 30.5821 6.09831 30.7525C23.2461 30.7525 40.3938 30.7525 57.5094 30.7525C57.5949 30.9716 57.506 31.047 57.4369 31.1181C56.4588 32.1254 55.4749 33.126 54.5005 34.1375C54.2538 34.3935 53.9637 34.3835 53.6616 34.3835C36.5608 34.382 19.4599 34.3822 2.35902 34.3822C2.2589 34.3822 2.15879 34.3822 2.01573 34.3823Z" fill="#EC8D35"/>
<path d="M49.7379 29.3684C48.984 28.8273 48.6449 28.0817 48.7586 27.1497C48.8626 26.2984 49.31 25.6927 50.0619 25.381C50.8736 25.0445 51.8155 25.324 52.3446 26.0598C52.9276 26.8707 52.9526 27.9266 52.4084 28.7562C51.8967 29.5363 50.9469 29.8699 50.1194 29.5558C49.9982 29.5098 49.8836 29.443 49.7379 29.3684Z" fill="#EC8D35"/>
</svg>
