<svg width="59" height="35" viewBox="0 0 59 35" fill="none" xmlns="http://www.w3.org/2000/svg">
<path d="M2.25316 34.3823C1.87561 34.3822 1.54085 34.367 1.2078 34.3862C0.882919 34.405 0.735138 34.2966 0.7397 33.9143C0.751809 32.8994 0.740248 31.8838 0.720678 30.8688C0.715911 30.6216 0.876386 30.5507 1.01156 30.4491C3.32104 28.714 5.63259 26.9821 7.94407 25.25C14.0918 20.6435 20.2398 16.0372 26.3871 11.4299C26.479 11.361 26.5922 11.312 26.6736 11.0734C19.8763 11.0734 13.1243 11.0734 6.33064 11.0734C6.8213 10.5119 7.2366 10.0202 7.66964 9.54719C7.94417 9.24735 8.27761 9.00471 8.52631 8.68405C8.86784 8.24371 9.27151 8.14316 9.78595 8.14439C16.5242 8.16054 23.2625 8.15028 30.0008 8.16383C30.5197 8.16488 30.9454 8.03596 31.3692 7.70581C32.5921 6.75327 33.8428 5.84223 35.0819 4.91371C35.1862 4.83557 35.3121 4.77607 35.3677 4.4798C31.5089 4.47283 27.6775 4.47801 23.8461 4.47708C19.9977 4.47614 16.1493 4.49013 12.301 4.47334C8.46216 4.45659 4.62243 4.58119 0.718262 4.44527C0.959879 4.03301 1.27927 3.80963 1.54205 3.53534C2.3022 2.74185 3.09652 1.9861 3.85201 1.1877C4.10439 0.92098 4.36091 0.8387 4.70122 0.839375C9.56613 0.849025 14.4311 0.846573 19.296 0.846648C28.7935 0.846796 38.291 0.846642 47.7885 0.846845C48.4609 0.846859 48.4613 0.847738 48.4618 1.55606C48.4624 2.3529 48.4388 3.15085 48.4712 3.94616C48.4897 4.3985 48.3213 4.49557 47.9418 4.49227C45.8943 4.47447 43.8466 4.48484 41.7991 4.46837C41.4466 4.46554 41.1563 4.56244 40.8702 4.7802C39.5666 5.77245 38.2529 6.74946 36.9439 7.73348C36.8379 7.81316 36.7394 7.9044 36.6469 8.10042C42.3075 8.10042 47.9682 8.10042 53.6908 8.10042C53.6908 9.12512 53.6937 10.0555 53.6885 10.9859C53.6873 11.1878 53.5183 11.2662 53.3906 11.362C50.0918 13.8365 46.7914 16.3087 43.4916 18.7816C40.4777 21.0403 37.4643 23.2997 34.4501 25.5578C34.3221 25.6537 34.2089 25.7859 33.9939 25.7839C33.8937 25.3296 34.0922 24.9056 34.1472 24.4787C34.2683 23.5383 34.4769 22.6113 34.6348 21.676C34.698 21.3023 34.851 21.0356 35.1523 20.8109C39.3173 17.706 43.474 14.5882 47.6322 11.4726C47.7486 11.3854 47.8589 11.2887 48.0072 11.1677C47.5543 10.9213 47.1129 11.0709 46.699 11.0694C42.8945 11.0557 39.0899 11.0765 35.2854 11.0836C34.4288 11.0852 33.572 11.0783 32.7156 11.062C32.5251 11.0584 32.3847 11.1376 32.2385 11.2472C25.2108 16.5153 18.1819 21.7815 11.1532 27.048C9.64023 28.1816 8.12733 29.3152 6.61511 30.4499C6.53363 30.511 6.45856 30.5821 6.3927 30.7525C23.7797 30.7525 41.1668 30.7525 58.5211 30.7525C58.6079 30.9716 58.5177 31.047 58.4476 31.1181C57.4559 32.1254 56.4583 33.126 55.4703 34.1375C55.2202 34.3935 54.926 34.3835 54.6197 34.3835C37.2802 34.382 19.9407 34.3822 2.60124 34.3822C2.49973 34.3822 2.39821 34.3822 2.25316 34.3823Z" fill="#FFF3E8"/>
<path d="M50.6412 29.3684C49.8768 28.8273 49.5329 28.0817 49.6483 27.1497C49.7537 26.2984 50.2074 25.6927 50.9698 25.381C51.7927 25.0445 52.7478 25.324 53.2842 26.0598C53.8754 26.8707 53.9008 27.9266 53.349 28.7562C52.8302 29.5363 51.867 29.8699 51.028 29.5558C50.9051 29.5098 50.789 29.443 50.6412 29.3684Z" fill="#FFF3E8"/>
</svg>
