<svg width="28" height="33" viewBox="0 0 28 33" fill="none" xmlns="http://www.w3.org/2000/svg">
<path d="M2.54815 20.8356C2.95207 20.4917 3.41813 20.2655 3.90881 20.1753L0 13.7018L5.37337 9.09422C4.92919 8.85619 4.53694 8.49955 4.22699 8.05191C3.91703 7.60427 3.69768 7.07764 3.58592 6.51279C3.47416 5.94794 3.47298 5.36002 3.58248 4.79454C3.69198 4.22906 3.90922 3.7012 4.21738 3.2518C4.52554 2.8024 4.91635 2.44354 5.35957 2.20298C5.80279 1.96242 6.28652 1.84662 6.77332 1.86455C7.26012 1.88248 7.73693 2.03365 8.16683 2.30636C8.59674 2.57908 8.96821 2.96602 9.25249 3.43723C9.57915 3.97603 9.77901 4.60907 9.83139 5.27082L15.9791 0L20.2194 7.02186C20.3256 6.28762 20.6113 5.60709 21.0409 5.06568C21.4704 4.52427 22.0246 4.14609 22.6339 3.9786C23.2431 3.81112 23.8803 3.86179 24.4655 4.12425C25.0507 4.38672 25.5578 4.84929 25.9232 5.45391C26.2885 6.05853 26.4959 6.77827 26.5192 7.52281C26.5426 8.26735 26.3808 9.00351 26.0543 9.63892C25.7278 10.2743 25.2511 10.7807 24.684 11.0944C24.1168 11.4081 23.4846 11.5153 22.8665 11.4024L27.1984 18.5717L21.2337 23.6921C21.1089 23.1614 20.8882 22.6697 20.5871 22.2513C20.286 21.8329 19.9118 21.4979 19.4907 21.2699C19.0696 21.0419 18.6118 20.9263 18.1492 20.9312C17.6867 20.9361 17.2307 21.0614 16.813 21.2983C16.3954 21.5353 16.0263 21.8781 15.7315 22.3029C15.4367 22.7276 15.2234 23.224 15.1065 23.7572C14.9896 24.2905 14.9719 24.8478 15.0547 25.39C15.1375 25.9323 15.3187 26.4464 15.5857 26.8965C15.8089 27.2617 16.0844 27.5771 16.3997 27.828L11.2044 32.2793L7.21892 25.6466C6.99829 26.154 6.68402 26.5953 6.29972 26.9373C5.91541 27.2792 5.47107 27.5129 5.00007 27.6209C4.52908 27.7288 4.04368 27.7082 3.58035 27.5605C3.11701 27.4128 2.6878 27.1419 2.32494 26.7681C1.96209 26.3944 1.67504 25.9275 1.48535 25.4026C1.29566 24.8777 1.20828 24.3084 1.22976 23.7374C1.25124 23.1665 1.38103 22.6088 1.60937 22.1062C1.83772 21.6036 2.15868 21.1692 2.54815 20.8356Z" fill="#EC8D35"/>
</svg>
