<svg width="21" height="18" viewBox="0 0 21 18" fill="none" xmlns="http://www.w3.org/2000/svg">
<path d="M12.5 12.5H8.5C7.94781 12.5 7.5 13.0598 7.5 13.75V18.75C7.5 19.4402 7.94781 20 8.5 20H12.5C13.0522 20 13.5 19.4402 13.5 18.75V13.75C13.5 13.0598 13.0522 12.5 12.5 12.5ZM6.5 1.25C6.5 0.559766 6.05219 0 5.5 0H1.5C0.947812 0 0.5 0.559766 0.5 1.25V6.25C0.5 6.94023 0.947812 7.5 1.5 7.5H4.49125L6.7775 12.5016C7.12438 11.757 7.7625 11.25 8.5 11.25H8.50875L6.5 6.85586V5H13.5V2.5H6.5V1.25ZM19.5 0H15.5C14.9478 0 14.5 0.559766 14.5 1.25V6.25C14.5 6.94023 14.9478 7.5 15.5 7.5H19.5C20.0522 7.5 20.5 6.94023 20.5 6.25V1.25C20.5 0.559766 20.0522 0 19.5 0Z" fill="#FFF8F1"/>
</svg>
