<svg width="21" height="21" viewBox="0 0 21 21" fill="none" xmlns="http://www.w3.org/2000/svg">
<path d="M1.96744 13.5551C2.27931 13.3313 2.63916 13.1841 3.01801 13.1255L0 8.91397L4.14881 5.91644C3.80586 5.76158 3.503 5.52956 3.26368 5.23834C3.02436 4.94712 2.855 4.60451 2.76871 4.23703C2.68242 3.86956 2.68151 3.48708 2.76605 3.11919C2.8506 2.75131 3.01833 2.40789 3.25626 2.11553C3.49419 1.82316 3.79594 1.58969 4.13815 1.43319C4.48036 1.27669 4.85386 1.20136 5.22972 1.21302C5.60558 1.22468 5.97372 1.32303 6.30565 1.50045C6.63759 1.67787 6.9244 1.92961 7.1439 2.23616C7.39611 2.58669 7.55043 2.99853 7.59087 3.42904L12.3375 0L15.6115 4.56822C15.6935 4.09054 15.9141 3.64781 16.2458 3.29558C16.5774 2.94336 17.0053 2.69732 17.4757 2.58836C17.9462 2.4794 18.4381 2.51237 18.89 2.68312C19.3418 2.85387 19.7333 3.15481 20.0154 3.54816C20.2975 3.94151 20.4576 4.40975 20.4756 4.89412C20.4937 5.3785 20.3688 5.85742 20.1167 6.2708C19.8646 6.68418 19.4965 7.01359 19.0586 7.2177C18.6207 7.42181 18.1326 7.49152 17.6554 7.41808L21 12.0822L16.3947 15.4134C16.2983 15.0682 16.1279 14.7482 15.8954 14.476C15.6629 14.2038 15.374 13.9859 15.0489 13.8376C14.7237 13.6892 14.3702 13.614 14.0131 13.6172C13.656 13.6204 13.3039 13.7019 12.9814 13.8561C12.659 14.0102 12.374 14.2333 12.1464 14.5096C11.9188 14.7859 11.7541 15.1088 11.6638 15.4558C11.5736 15.8027 11.5599 16.1652 11.6238 16.518C11.6877 16.8708 11.8277 17.2053 12.0338 17.4981C12.2061 17.7357 12.4189 17.9409 12.6623 18.1041L8.65099 21L5.57377 16.6849C5.40342 17.0151 5.16077 17.3022 4.86404 17.5246C4.56732 17.7471 4.22424 17.8991 3.86058 17.9693C3.49693 18.0396 3.12215 18.0261 2.76441 17.93C2.40666 17.834 2.07526 17.6577 1.7951 17.4146C1.51494 17.1714 1.2933 16.8677 1.14685 16.5262C1.00039 16.1847 0.932919 15.8143 0.949504 15.4429C0.96609 15.0714 1.0663 14.7086 1.24261 14.3816C1.41891 14.0547 1.66673 13.7721 1.96744 13.5551Z" fill="white"/>
</svg>
